<?xml version="1.0" encoding="utf-8"?>
<!-- Generator: Adobe Illustrator 27.3.1, SVG Export Plug-In . SVG Version: 6.00 Build 0)  -->
<svg version="1.1" xmlns="http://www.w3.org/2000/svg" xmlns:xlink="http://www.w3.org/1999/xlink" x="0px" y="0px"
	 viewBox="0 0 500 500" style="enable-background:new 0 0 500 500;" xml:space="preserve">
<style type="text/css">
	.st0{display:none;}
	.st1{display:inline;}
	.st2{fill:none;stroke:#18130B;stroke-width:15;stroke-linecap:round;stroke-linejoin:round;stroke-miterlimit:10;}
	.st3{fill:none;stroke:#18130B;stroke-width:70;stroke-linecap:round;stroke-linejoin:round;stroke-miterlimit:10;}
	.st4{fill:none;stroke:#F9EF82;stroke-width:80;stroke-linecap:round;stroke-linejoin:round;stroke-miterlimit:10;}
	.st5{fill:none;stroke:#F9EF82;stroke-width:50;stroke-linecap:round;stroke-linejoin:round;stroke-miterlimit:10;}
	.st6{fill:none;stroke:#18130B;stroke-width:40;stroke-linecap:round;stroke-linejoin:round;stroke-miterlimit:10;}
	.st7{fill:none;stroke:#FFFFFF;stroke-width:15;stroke-linecap:round;stroke-linejoin:round;stroke-miterlimit:10;}
	.st8{fill:none;stroke:#FFFCF8;stroke-width:15;stroke-linecap:round;stroke-linejoin:round;stroke-miterlimit:10;}
	.st9{fill:none;stroke:#FFFCF8;stroke-width:70;stroke-linecap:round;stroke-linejoin:round;stroke-miterlimit:10;}
	.st10{fill:none;stroke:#FFFCF8;stroke-width:40;stroke-linecap:round;stroke-linejoin:round;stroke-miterlimit:10;}
</style>
<g id="Camada_1" class="st0">
	<g id="Camada_5" class="st1">
		<g id="XMLID_00000003807626970367491150000003798435060852690823_">
			<g>
				<path class="st2" d="M253.6,424.6h62.6c18.3,0,35.3-9.6,44.8-25.2l46.4-76.6"/>
				<path class="st2" d="M405.8,168l-44.8-74c-9.5-15.7-26.5-25.2-44.8-25.2H159.8c-18.3,0-35.3,9.6-44.8,25.2l-76,125.6
					c-10.1,16.7-10.1,37.5,0,54.2l83.1,137.3"/>
				<line class="st3" x1="410.8" y1="227.7" x2="417.7" y2="267.7"/>
				<line class="st4" x1="320.7" y1="267.7" x2="212" y2="145.6"/>
				<line class="st3" x1="260.5" y1="334.9" x2="129" y2="261"/>
				<line class="st5" x1="216.5" y1="388" x2="158.6" y2="372.3"/>
				<line class="st6" x1="199.6" y1="437.1" x2="150.1" y2="431.8"/>
				<line class="st2" x1="461.1" y1="230.2" x2="481.9" y2="221.9"/>
				<line class="st2" x1="465.5" y1="261" x2="486.6" y2="269.5"/>
			</g>
		</g>
	</g>
</g>
<g id="Camada_1_cópia">
	<g id="Camada_5_00000070086809938607602800000006958365376178362291_">
		<g id="XMLID_00000008145241282093034440000017593011248170300579_">
			<g>
				<path class="st7" d="M253.6,424.6h62.6c18.3,0,35.3-9.6,44.8-25.2l46.4-76.6"/>
				<path class="st8" d="M405.8,168l-44.8-74c-9.5-15.7-26.5-25.2-44.8-25.2H159.8c-18.3,0-35.3,9.6-44.8,25.2l-76,125.6
					c-10.1,16.7-10.1,37.5,0,54.2l83.1,137.3"/>
				<line class="st9" x1="410.8" y1="227.7" x2="417.7" y2="267.7"/>
				<line class="st4" x1="320.7" y1="267.7" x2="212" y2="145.6"/>
				<line class="st9" x1="260.5" y1="334.9" x2="129" y2="261"/>
				<line class="st5" x1="216.5" y1="388" x2="158.6" y2="372.3"/>
				<line class="st10" x1="199.6" y1="437.1" x2="150.1" y2="431.8"/>
				<line class="st8" x1="461.1" y1="230.2" x2="481.9" y2="221.9"/>
				<line class="st8" x1="465.5" y1="261" x2="486.6" y2="269.5"/>
			</g>
		</g>
	</g>
</g>
</svg>
